<mxfile host="app.diagrams.net" modified="2023-03-27T14:16:32.694Z" agent="Mozilla/5.0 (Windows NT 10.0; Win64; x64) AppleWebKit/537.36 (KHTML, like Gecko) Chrome/111.0.0.0 Safari/537.36" etag="UwJa86Ht7z2zOy25Mk_n" version="21.1.1" type="github">
  <diagram name="Page-1" id="VLPiMGE3NPKoOwhcJ3Gu">
    <mxGraphModel dx="2607" dy="1389" grid="1" gridSize="10" guides="1" tooltips="1" connect="1" arrows="1" fold="1" page="1" pageScale="1" pageWidth="827" pageHeight="1169" math="0" shadow="0">
      <root>
        <mxCell id="0" />
        <mxCell id="1" parent="0" />
        <mxCell id="7Az4a4Ql9jXanGMlviSZ-6" value="&lt;b&gt;&lt;font style=&quot;font-size: 30px;&quot;&gt;user&lt;/font&gt;&lt;/b&gt;" style="rounded=0;whiteSpace=wrap;html=1;fillColor=#6a00ff;fontColor=#ffffff;strokeColor=#3700CC;" vertex="1" parent="1">
          <mxGeometry x="349" y="40" width="120" height="120" as="geometry" />
        </mxCell>
        <mxCell id="7Az4a4Ql9jXanGMlviSZ-7" value="User Profile" style="rhombus;whiteSpace=wrap;html=1;fillColor=#f0a30a;strokeColor=#BD7000;fontColor=#000000;" vertex="1" parent="1">
          <mxGeometry x="369" y="200" width="80" height="80" as="geometry" />
        </mxCell>
        <mxCell id="7Az4a4Ql9jXanGMlviSZ-8" value="shiping&amp;nbsp;&lt;br&gt;address" style="rhombus;whiteSpace=wrap;html=1;fillColor=#6d8764;strokeColor=#3A5431;fontColor=#ffffff;" vertex="1" parent="1">
          <mxGeometry x="550" y="360" width="80" height="80" as="geometry" />
        </mxCell>
        <mxCell id="7Az4a4Ql9jXanGMlviSZ-9" value="" style="endArrow=classic;html=1;rounded=0;entryX=0.5;entryY=0;entryDx=0;entryDy=0;" edge="1" parent="1" source="7Az4a4Ql9jXanGMlviSZ-6" target="7Az4a4Ql9jXanGMlviSZ-7">
          <mxGeometry width="50" height="50" relative="1" as="geometry">
            <mxPoint x="409" y="200" as="sourcePoint" />
            <mxPoint x="179" y="170" as="targetPoint" />
          </mxGeometry>
        </mxCell>
        <mxCell id="7Az4a4Ql9jXanGMlviSZ-12" value="forget pass" style="rhombus;whiteSpace=wrap;html=1;fillColor=#a0522d;strokeColor=#6D1F00;fontColor=#ffffff;" vertex="1" parent="1">
          <mxGeometry x="369" y="360" width="80" height="80" as="geometry" />
        </mxCell>
        <mxCell id="7Az4a4Ql9jXanGMlviSZ-13" value="" style="endArrow=classic;html=1;rounded=0;" edge="1" parent="1" target="7Az4a4Ql9jXanGMlviSZ-8">
          <mxGeometry width="50" height="50" relative="1" as="geometry">
            <mxPoint x="409" y="270" as="sourcePoint" />
            <mxPoint x="459" y="220" as="targetPoint" />
          </mxGeometry>
        </mxCell>
        <mxCell id="7Az4a4Ql9jXanGMlviSZ-15" value="" style="endArrow=classic;html=1;rounded=0;" edge="1" parent="1" target="7Az4a4Ql9jXanGMlviSZ-12">
          <mxGeometry width="50" height="50" relative="1" as="geometry">
            <mxPoint x="409" y="270" as="sourcePoint" />
            <mxPoint x="459" y="220" as="targetPoint" />
          </mxGeometry>
        </mxCell>
        <mxCell id="7Az4a4Ql9jXanGMlviSZ-17" value="Orders&lt;br&gt;show&amp;nbsp;&lt;br&gt;cancel" style="rhombus;whiteSpace=wrap;html=1;fillColor=#76608a;strokeColor=#432D57;fontColor=#ffffff;" vertex="1" parent="1">
          <mxGeometry x="180" y="360" width="80" height="80" as="geometry" />
        </mxCell>
        <mxCell id="7Az4a4Ql9jXanGMlviSZ-18" value="" style="endArrow=classic;html=1;rounded=0;" edge="1" parent="1" target="7Az4a4Ql9jXanGMlviSZ-17">
          <mxGeometry width="50" height="50" relative="1" as="geometry">
            <mxPoint x="409" y="270" as="sourcePoint" />
            <mxPoint x="459" y="290" as="targetPoint" />
          </mxGeometry>
        </mxCell>
        <mxCell id="7Az4a4Ql9jXanGMlviSZ-31" value="&lt;span style=&quot;font-size: 30px;&quot;&gt;&lt;b&gt;Admin&lt;/b&gt;&lt;/span&gt;" style="rounded=0;whiteSpace=wrap;html=1;fillColor=#6a00ff;fontColor=#ffffff;strokeColor=#3700CC;" vertex="1" parent="1">
          <mxGeometry x="353" y="530" width="120" height="120" as="geometry" />
        </mxCell>
        <mxCell id="7Az4a4Ql9jXanGMlviSZ-32" value="Dashboard" style="rhombus;whiteSpace=wrap;html=1;fillColor=#f0a30a;strokeColor=#BD7000;fontColor=#000000;" vertex="1" parent="1">
          <mxGeometry x="373" y="690" width="80" height="80" as="geometry" />
        </mxCell>
        <mxCell id="7Az4a4Ql9jXanGMlviSZ-33" value="shiping&amp;nbsp;&lt;br&gt;address" style="rhombus;whiteSpace=wrap;html=1;fillColor=#6d8764;strokeColor=#3A5431;fontColor=#ffffff;" vertex="1" parent="1">
          <mxGeometry x="430" y="880" width="80" height="80" as="geometry" />
        </mxCell>
        <mxCell id="7Az4a4Ql9jXanGMlviSZ-34" value="" style="endArrow=classic;html=1;rounded=0;entryX=0.5;entryY=0;entryDx=0;entryDy=0;" edge="1" source="7Az4a4Ql9jXanGMlviSZ-31" target="7Az4a4Ql9jXanGMlviSZ-32" parent="1">
          <mxGeometry width="50" height="50" relative="1" as="geometry">
            <mxPoint x="413" y="690" as="sourcePoint" />
            <mxPoint x="183" y="660" as="targetPoint" />
          </mxGeometry>
        </mxCell>
        <mxCell id="7Az4a4Ql9jXanGMlviSZ-35" value="product&amp;nbsp;&lt;br&gt;add&lt;br&gt;delete&lt;br&gt;update" style="rhombus;whiteSpace=wrap;html=1;fillColor=#76608a;strokeColor=#432D57;fontColor=#ffffff;" vertex="1" parent="1">
          <mxGeometry x="180" y="880" width="80" height="80" as="geometry" />
        </mxCell>
        <mxCell id="7Az4a4Ql9jXanGMlviSZ-36" value="order&amp;nbsp;&lt;br&gt;status" style="rhombus;whiteSpace=wrap;html=1;fillColor=#a0522d;strokeColor=#6D1F00;fontColor=#ffffff;" vertex="1" parent="1">
          <mxGeometry x="310" y="880" width="80" height="80" as="geometry" />
        </mxCell>
        <mxCell id="7Az4a4Ql9jXanGMlviSZ-37" value="" style="endArrow=classic;html=1;rounded=0;" edge="1" target="7Az4a4Ql9jXanGMlviSZ-33" parent="1">
          <mxGeometry width="50" height="50" relative="1" as="geometry">
            <mxPoint x="413" y="760" as="sourcePoint" />
            <mxPoint x="463" y="710" as="targetPoint" />
          </mxGeometry>
        </mxCell>
        <mxCell id="7Az4a4Ql9jXanGMlviSZ-38" value="" style="endArrow=classic;html=1;rounded=0;" edge="1" target="7Az4a4Ql9jXanGMlviSZ-35" parent="1">
          <mxGeometry width="50" height="50" relative="1" as="geometry">
            <mxPoint x="413" y="760" as="sourcePoint" />
            <mxPoint x="463" y="710" as="targetPoint" />
          </mxGeometry>
        </mxCell>
        <mxCell id="7Az4a4Ql9jXanGMlviSZ-39" value="" style="endArrow=classic;html=1;rounded=0;" edge="1" target="7Az4a4Ql9jXanGMlviSZ-36" parent="1">
          <mxGeometry width="50" height="50" relative="1" as="geometry">
            <mxPoint x="413" y="760" as="sourcePoint" />
            <mxPoint x="463" y="710" as="targetPoint" />
          </mxGeometry>
        </mxCell>
        <mxCell id="7Az4a4Ql9jXanGMlviSZ-40" value="Orders&lt;br&gt;show&amp;nbsp;&lt;br&gt;cancel" style="rhombus;whiteSpace=wrap;html=1;fillColor=#76608a;strokeColor=#432D57;fontColor=#ffffff;" vertex="1" parent="1">
          <mxGeometry x="30" y="880" width="80" height="80" as="geometry" />
        </mxCell>
        <mxCell id="7Az4a4Ql9jXanGMlviSZ-41" value="" style="endArrow=classic;html=1;rounded=0;" edge="1" target="7Az4a4Ql9jXanGMlviSZ-40" parent="1">
          <mxGeometry width="50" height="50" relative="1" as="geometry">
            <mxPoint x="413" y="760" as="sourcePoint" />
            <mxPoint x="463" y="780" as="targetPoint" />
          </mxGeometry>
        </mxCell>
        <mxCell id="7Az4a4Ql9jXanGMlviSZ-42" value="manage&amp;nbsp;&lt;br&gt;site&amp;nbsp;&lt;br&gt;info" style="rhombus;whiteSpace=wrap;html=1;fillColor=#6d8764;strokeColor=#3A5431;fontColor=#ffffff;" vertex="1" parent="1">
          <mxGeometry x="580" y="880" width="80" height="80" as="geometry" />
        </mxCell>
        <mxCell id="7Az4a4Ql9jXanGMlviSZ-43" value="Show user&lt;br&gt;" style="rhombus;whiteSpace=wrap;html=1;fillColor=#b1ddf0;strokeColor=#10739e;" vertex="1" parent="1">
          <mxGeometry x="700" y="880" width="80" height="80" as="geometry" />
        </mxCell>
        <mxCell id="7Az4a4Ql9jXanGMlviSZ-44" value="Manage&amp;nbsp;&lt;br&gt;product&amp;nbsp;&lt;br&gt;rates" style="rhombus;whiteSpace=wrap;html=1;fillColor=#6d8764;strokeColor=#3A5431;fontColor=#ffffff;" vertex="1" parent="1">
          <mxGeometry x="600" y="770" width="80" height="80" as="geometry" />
        </mxCell>
        <mxCell id="7Az4a4Ql9jXanGMlviSZ-45" value="Manage&amp;nbsp;&lt;br&gt;calculator&lt;br&gt;rate" style="rhombus;whiteSpace=wrap;html=1;fillColor=#b0e3e6;strokeColor=#0e8088;" vertex="1" parent="1">
          <mxGeometry x="140" y="770" width="80" height="80" as="geometry" />
        </mxCell>
        <mxCell id="7Az4a4Ql9jXanGMlviSZ-46" value="" style="endArrow=classic;html=1;rounded=0;" edge="1" parent="1" source="7Az4a4Ql9jXanGMlviSZ-32" target="7Az4a4Ql9jXanGMlviSZ-45">
          <mxGeometry width="50" height="50" relative="1" as="geometry">
            <mxPoint x="450" y="910" as="sourcePoint" />
            <mxPoint x="500" y="860" as="targetPoint" />
          </mxGeometry>
        </mxCell>
        <mxCell id="7Az4a4Ql9jXanGMlviSZ-47" value="" style="endArrow=classic;html=1;rounded=0;" edge="1" parent="1" source="7Az4a4Ql9jXanGMlviSZ-32" target="7Az4a4Ql9jXanGMlviSZ-44">
          <mxGeometry width="50" height="50" relative="1" as="geometry">
            <mxPoint x="450" y="910" as="sourcePoint" />
            <mxPoint x="500" y="860" as="targetPoint" />
          </mxGeometry>
        </mxCell>
        <mxCell id="7Az4a4Ql9jXanGMlviSZ-48" value="" style="endArrow=classic;html=1;rounded=0;" edge="1" parent="1" source="7Az4a4Ql9jXanGMlviSZ-32" target="7Az4a4Ql9jXanGMlviSZ-42">
          <mxGeometry width="50" height="50" relative="1" as="geometry">
            <mxPoint x="450" y="910" as="sourcePoint" />
            <mxPoint x="500" y="860" as="targetPoint" />
          </mxGeometry>
        </mxCell>
        <mxCell id="7Az4a4Ql9jXanGMlviSZ-49" value="" style="endArrow=classic;html=1;rounded=0;" edge="1" parent="1" source="7Az4a4Ql9jXanGMlviSZ-32" target="7Az4a4Ql9jXanGMlviSZ-43">
          <mxGeometry width="50" height="50" relative="1" as="geometry">
            <mxPoint x="450" y="910" as="sourcePoint" />
            <mxPoint x="500" y="860" as="targetPoint" />
          </mxGeometry>
        </mxCell>
      </root>
    </mxGraphModel>
  </diagram>
</mxfile>
